HIERARCHY
ROOT hip
{
  OFFSET 9.61854 105.935 -5.39096
  CHANNELS 6 Xposition Yposition Zposition Zrotation Xrotation Yrotation
  JOINT abdomen
  {
    OFFSET 0 -1.186 -1.50178
    CHANNELS 6 Xposition Yposition Zposition Zrotation Xrotation Yrotation
    JOINT abdomen2
    {
      OFFSET 0 9.964 0.21338
      CHANNELS 6 Xposition Yposition Zposition Zrotation Xrotation Yrotation
      JOINT chest
      {
        OFFSET 0 13.134 -3.25729
        CHANNELS 6 Xposition Yposition Zposition Zrotation Xrotation Yrotation
        JOINT neck
        {
          OFFSET 0 21.686 -1.69049
          CHANNELS 6 Xposition Yposition Zposition Zrotation Xrotation Yrotation
          JOINT head
          {
            OFFSET 0 11.838 -0.12368
            CHANNELS 6 Xposition Yposition Zposition Zrotation Xrotation Yrotation
            End Site
            {
              OFFSET 0 6.717 2.38717
            }
          }
        }
        JOINT lCollar
        {
          OFFSET 1.70688 20.075 5.0056
          CHANNELS 6 Xposition Yposition Zposition Zrotation Xrotation Yrotation
          JOINT lShldr
          {
            OFFSET 13.6458 -0.047012 -4.84902
            CHANNELS 6 Xposition Yposition Zposition Zrotation Xrotation Yrotation
            JOINT lForeArm
            {
              OFFSET 28.3255 -0.975903 2.28883
              CHANNELS 6 Xposition Yposition Zposition Zrotation Xrotation Yrotation
              JOINT lHand
              {
                OFFSET 22.1583 -0.530035 10.8316
                CHANNELS 6 Xposition Yposition Zposition Zrotation Xrotation Yrotation
                JOINT lThumb1
                {
                  OFFSET 0.785995 0.111999 2.58168
                  CHANNELS 6 Xposition Yposition Zposition Zrotation Xrotation Yrotation
                  JOINT lThumb2
                  {
                    OFFSET 0.3601 -0.878005 4.2331
                    CHANNELS 6 Xposition Yposition Zposition Zrotation Xrotation Yrotation
                    End Site
                    {
                      OFFSET 1.81271 -1.21601 2.2227
                    }
                  }
                }
                JOINT lCarpal1
                {
                  OFFSET 0.9571 1.114 1.76948
                  CHANNELS 6 Xposition Yposition Zposition Zrotation Xrotation Yrotation
                  JOINT lIndex1
                  {
                    OFFSET 4.1246 0.487 4.1451
                    CHANNELS 6 Xposition Yposition Zposition Zrotation Xrotation Yrotation
                    JOINT lIndex2
                    {
                      OFFSET 3.40521 -1.45401 2.7682
                      CHANNELS 6 Xposition Yposition Zposition Zrotation Xrotation Yrotation
                      End Site
                      {
                        OFFSET 1.4531 -1.795 1.2713
                      }
                    }
                  }
                  JOINT lMid1
                  {
                    OFFSET 5.6954 0.209991 2.1184
                    CHANNELS 6 Xposition Yposition Zposition Zrotation Xrotation Yrotation
                    JOINT lMid2
                    {
                      OFFSET 3.9766 -1.53999 2.3863
                      CHANNELS 6 Xposition Yposition Zposition Zrotation Xrotation Yrotation
                      End Site
                      {
                        OFFSET 1.4042 -1.926 1.125
                      }
                    }
                  }
                }
                JOINT lCarpal2
                {
                  OFFSET 2.09559 0.65999 -0.38939
                  CHANNELS 6 Xposition Yposition Zposition Zrotation Xrotation Yrotation
                  JOINT lRing1
                  {
                    OFFSET 5.0395 -0.089997 2.49707
                    CHANNELS 6 Xposition Yposition Zposition Zrotation Xrotation Yrotation
                    JOINT lRing2
                    {
                      OFFSET 3.7921 -1.552 1.4806
                      CHANNELS 6 Xposition Yposition Zposition Zrotation Xrotation Yrotation
                      End Site
                      {
                        OFFSET 1.4655 -1.808 0.9609
                      }
                    }
                  }
                  JOINT lPinky1
                  {
                    OFFSET 4.9141 -1.269 0.35915
                    CHANNELS 6 Xposition Yposition Zposition Zrotation Xrotation Yrotation
                    JOINT lPinky2
                    {
                      OFFSET 3.1477 -1.685 0.84623
                      CHANNELS 6 Xposition Yposition Zposition Zrotation Xrotation Yrotation
                      End Site
                      {
                        OFFSET 0.805505 -1.58499 0.79549
                      }
                    }
                  }
                }
              }
            }
          }
        }
        JOINT rCollar
        {
          OFFSET -1.70688 20.075 5.0056
          CHANNELS 6 Xposition Yposition Zposition Zrotation Xrotation Yrotation
          JOINT rShldr
          {
            OFFSET -13.6458 -0.047012 -4.84902
            CHANNELS 6 Xposition Yposition Zposition Zrotation Xrotation Yrotation
            JOINT rForeArm
            {
              OFFSET -28.3255 -0.975903 2.28883
              CHANNELS 6 Xposition Yposition Zposition Zrotation Xrotation Yrotation
              JOINT rHand
              {
                OFFSET -22.1583 -0.530036 10.8316
                CHANNELS 6 Xposition Yposition Zposition Zrotation Xrotation Yrotation
                JOINT rThumb1
                {
                  OFFSET -0.785995 0.111999 2.58168
                  CHANNELS 6 Xposition Yposition Zposition Zrotation Xrotation Yrotation
                  JOINT rThumb2
                  {
                    OFFSET -0.3601 -0.878005 4.2331
                    CHANNELS 6 Xposition Yposition Zposition Zrotation Xrotation Yrotation
                    End Site
                    {
                      OFFSET -1.81271 -1.21601 2.2227
                    }
                  }
                }
                JOINT rCarpal1
                {
                  OFFSET -0.9571 1.114 1.76948
                  CHANNELS 6 Xposition Yposition Zposition Zrotation Xrotation Yrotation
                  JOINT rIndex1
                  {
                    OFFSET -4.1246 0.487 4.1451
                    CHANNELS 6 Xposition Yposition Zposition Zrotation Xrotation Yrotation
                    JOINT rIndex2
                    {
                      OFFSET -3.40521 -1.45401 2.7682
                      CHANNELS 6 Xposition Yposition Zposition Zrotation Xrotation Yrotation
                      End Site
                      {
                        OFFSET -1.4531 -1.795 1.2713
                      }
                    }
                  }
                  JOINT rMid1
                  {
                    OFFSET -5.6954 0.209991 2.1184
                    CHANNELS 6 Xposition Yposition Zposition Zrotation Xrotation Yrotation
                    JOINT rMid2
                    {
                      OFFSET -3.9766 -1.53999 2.3863
                      CHANNELS 6 Xposition Yposition Zposition Zrotation Xrotation Yrotation
                      End Site
                      {
                        OFFSET -1.4042 -1.926 1.125
                      }
                    }
                  }
                }
                JOINT rCarpal2
                {
                  OFFSET -2.09559 0.65999 -0.38939
                  CHANNELS 6 Xposition Yposition Zposition Zrotation Xrotation Yrotation
                  JOINT rRing1
                  {
                    OFFSET -5.0395 -0.089997 2.49707
                    CHANNELS 6 Xposition Yposition Zposition Zrotation Xrotation Yrotation
                    JOINT rRing2
                    {
                      OFFSET -3.7921 -1.552 1.4806
                      CHANNELS 6 Xposition Yposition Zposition Zrotation Xrotation Yrotation
                      End Site
                      {
                        OFFSET -1.4655 -1.808 0.9609
                      }
                    }
                  }
                  JOINT rPinky1
                  {
                    OFFSET -4.9141 -1.269 0.35915
                    CHANNELS 6 Xposition Yposition Zposition Zrotation Xrotation Yrotation
                    JOINT rPinky2
                    {
                      OFFSET -3.1477 -1.685 0.84623
                      CHANNELS 6 Xposition Yposition Zposition Zrotation Xrotation Yrotation
                      End Site
                      {
                        OFFSET -0.805505 -1.58499 0.79549
                      }
                    }
                  }
                }
              }
            }
          }
        }
      }
    }
  }
  JOINT lThigh
  {
    OFFSET 8.367 -8.2066 0.59823
    CHANNELS 6 Xposition Yposition Zposition Zrotation Xrotation Yrotation
    JOINT lShin
    {
      OFFSET 2.19232 -43.463 -0.493181
      CHANNELS 6 Xposition Yposition Zposition Zrotation Xrotation Yrotation
      JOINT lFoot
      {
        OFFSET 0.733257 -45.8593 -2.64513
        CHANNELS 6 Xposition Yposition Zposition Zrotation Xrotation Yrotation
        End Site
        {
          OFFSET 2.6618 -4.26993 12.3931
        }
      }
    }
  }
  JOINT rThigh
  {
    OFFSET -8.367 -8.2066 0.59823
    CHANNELS 6 Xposition Yposition Zposition Zrotation Xrotation Yrotation
    JOINT rShin
    {
      OFFSET -2.19233 -43.463 -0.493108
      CHANNELS 6 Xposition Yposition Zposition Zrotation Xrotation Yrotation
      JOINT rFoot
      {
        OFFSET -0.733256 -45.8593 -2.64514
        CHANNELS 6 Xposition Yposition Zposition Zrotation Xrotation Yrotation
        End Site
        {
          OFFSET -2.6618 -4.26993 12.3931
        }
      }
    }
  }
}
MOTION
Frames:	4
Frame Time:	0.0333333
-2.60411 101.326 -224.433 -0.815742 1.01179 -0.684036 -8.88179e-016 -1.186 -1.50178 -0.36941 1.30755 0.680889 0 9.964 0.21338 -0.754631 2.61058 1.37073 -8.88179e-016 13.134 -3.25729 -0.754634 2.61059 1.37073 -1.77636e-015 21.686 -1.69049 -3.09322 -4.40807 -0.611026 0 11.838 -0.12368 1.14652 -7.70157 -2.45113 1.70688 20.075 5.0056 -0.731949 -0.129108 -7.01665 13.6458 -0.047012 -4.84902 -60.779 -13.291 21.519 28.3255 -0.975903 2.28883 -8.20345 16.5343 4.16823 22.1583 -0.530035 10.8316 -1.22693 20.6763 -8.92926 0.785995 0.111999 2.58168 0 0 -3.18055e-015 0.3601 -0.878005 4.2331 -3.18055e-015 0 -0 0.9571 1.114 1.76948 0 0 -3.18055e-015 4.1246 0.487 4.1451 -3.18055e-015 0 -0 3.40521 -1.45401 2.7682 -3.18055e-015 0 6.36111e-015 5.6954 0.209991 2.1184 -3.18055e-015 0 -0 3.9766 -1.53999 2.3863 -3.18055e-015 0 6.36111e-015 2.09559 0.65999 -0.38939 0 0 -3.18055e-015 5.0395 -0.089997 2.49707 -3.18055e-015 0 -0 3.7921 -1.552 1.4806 -3.18055e-015 0 6.36111e-015 4.9141 -1.269 0.35915 -3.18055e-015 0 -0 3.1477 -1.685 0.84623 -3.18055e-015 0 6.36111e-015 -1.70688 20.075 5.0056 3.49051 0.894634 13.6805 -13.6458 -0.047012 -4.84902 69.6385 0.0589225 0.123187 -28.3255 -0.975903 2.28883 2.68513 -11.3638 15.3762 -22.1583 -0.530036 10.8316 9.22062 -2.13294 6.6869 -0.785995 0.111999 2.58168 -0 -7.95139e-016 -0 -0.3601 -0.878005 4.2331 3.97569e-016 -2.38542e-015 -0 -0.9571 1.114 1.76948 -0 -7.95139e-016 -0 -4.1246 0.487 4.1451 3.97569e-016 -2.38542e-015 -0 -3.40521 -1.45401 2.7682 -1.19271e-015 -7.95139e-016 -3.18055e-015 -5.6954 0.209991 2.1184 3.97569e-016 -2.38542e-015 -0 -3.9766 -1.53999 2.3863 -1.19271e-015 -7.95139e-016 -3.18055e-015 -2.09559 0.65999 -0.38939 -0 -7.95139e-016 -0 -5.0395 -0.089997 2.49707 3.97569e-016 -2.38542e-015 -0 -3.7921 -1.552 1.4806 -1.19271e-015 -7.95139e-016 -3.18055e-015 -4.9141 -1.269 0.35915 3.97569e-016 -2.38542e-015 -0 -3.1477 -1.685 0.84623 -1.19271e-015 -7.95139e-016 -3.18055e-015 8.367 -8.2066 0.59823 -2.39485 -29.673 -1.72012 2.19232 -43.463 -0.493181 0.23416 12.4485 0.286569 0.733257 -45.8593 -2.64513 -6.21098 9.76736 4.16584 -8.367 -8.2066 0.59823 0.954562 20.428 4.94054 -2.19233 -43.463 -0.493108 5.64838 19.5539 -1.99326 -0.733256 -45.8593 -2.64514 7.24015 -0.700076 11.2198 
-1.5297 102.752 -218.71 -2.35194 0.340358 -0.0838973 0 -1.186 -1.50178 0.119791 1.37823 0.520956 0 9.964 0.21338 0.22713 2.7575 1.03948 -8.88179e-016 13.134 -3.25729 0.227129 2.75749 1.03948 8.88179e-016 21.686 -1.69049 -4.12513 -4.52092 -0.663182 -1.77636e-015 11.838 -0.12368 0.693305 -7.75777 -2.34692 1.70688 20.075 5.0056 -2.35815 0.232039 -7.19506 13.6458 -0.047012 -4.84902 -60.3116 -12.1379 19.1393 28.3255 -0.975903 2.28883 -8.55524 12.819 3.89439 22.1583 -0.530035 10.8316 -0.470617 20.1362 -6.7185 0.785995 0.111999 2.58168 1.59028e-015 3.18055e-015 -6.36111e-015 0.3601 -0.878005 4.2331 1.59028e-015 3.18055e-015 -0 0.9571 1.114 1.76948 1.59028e-015 3.18055e-015 -6.36111e-015 4.1246 0.487 4.1451 1.59028e-015 3.18055e-015 -0 3.40521 -1.45401 2.7682 3.18055e-015 3.18055e-015 -0 5.6954 0.209991 2.1184 1.59028e-015 3.18055e-015 -0 3.9766 -1.53999 2.3863 3.18055e-015 3.18055e-015 -0 2.09559 0.65999 -0.38939 1.59028e-015 3.18055e-015 -6.36111e-015 5.0395 -0.089997 2.49707 1.59028e-015 3.18055e-015 -0 3.7921 -1.552 1.4806 3.18055e-015 3.18055e-015 -0 4.9141 -1.269 0.35915 1.59028e-015 3.18055e-015 -0 3.1477 -1.685 0.84623 3.18055e-015 3.18055e-015 -0 -1.70688 20.075 5.0056 3.78489 0.953353 13.4898 -13.6458 -0.047012 -4.84902 69.7633 -1.66244 -0.876943 -28.3255 -0.975903 2.28883 2.29242 -10.1091 13.3263 -22.1583 -0.530036 10.8316 8.48272 -2.02496 5.39116 -0.785995 0.111999 2.58168 3.97569e-016 1.59028e-015 -0 -0.3601 -0.878005 4.2331 -5.96354e-016 7.95139e-016 -1.59028e-015 -0.9571 1.114 1.76948 3.97569e-016 1.59028e-015 -0 -4.1246 0.487 4.1451 -5.96354e-016 7.95139e-016 -1.59028e-015 -3.40521 -1.45401 2.7682 2.20695e-032 7.95139e-016 -1.59028e-015 -5.6954 0.209991 2.1184 -5.96354e-016 7.95139e-016 -1.59028e-015 -3.9766 -1.53999 2.3863 2.20695e-032 7.95139e-016 -1.59028e-015 -2.09559 0.65999 -0.38939 3.97569e-016 1.59028e-015 -0 -5.0395 -0.089997 2.49707 -5.96354e-016 7.95139e-016 -1.59028e-015 -3.7921 -1.552 1.4806 2.20695e-032 7.95139e-016 -1.59028e-015 -4.9141 -1.269 0.35915 -5.96354e-016 7.95139e-016 -1.59028e-015 -3.1477 -1.685 0.84623 2.20695e-032 7.95139e-016 -1.59028e-015 8.367 -8.2066 0.59823 -2.08932 -27.3581 -4.83608 2.19232 -43.463 -0.493181 -0.308732 16.3691 1.03065 0.733257 -45.8593 -2.64513 -3.01262 6.8719 4.01939 -8.367 -8.2066 0.59823 1.30914 14.4184 4.15983 -2.19233 -43.463 -0.493108 8.91841 32.921 -4.13798 -0.733256 -45.8593 -2.64514 9.04955 10.3113 7.69211 
-0.655398 103.912 -213.473 -3.68929 -0.236236 -0.258726 0 -1.186 -1.50178 0.527622 1.45144 0.498984 0 9.964 0.21338 1.04307 2.90736 0.985045 0 13.134 -3.25729 1.04307 2.90737 0.985047 0 21.686 -1.69049 -4.7054 -4.5516 -0.690051 -1.77636e-015 11.838 -0.12368 0.327734 -7.83579 -2.18938 1.70688 20.075 5.0056 -3.4335 0.511024 -7.55073 13.6458 -0.047012 -4.84902 -60.1081 -10.3425 16.5585 28.3255 -0.975903 2.28883 -8.98819 9.0359 3.33141 22.1583 -0.530035 10.8316 0.220897 19.0049 -5.6366 0.785995 0.111999 2.58168 -1.76556e-031 3.18055e-015 3.18055e-015 0.3601 -0.878005 4.2331 7.95139e-016 -3.18055e-015 6.36111e-015 0.9571 1.114 1.76948 -1.76556e-031 3.18055e-015 3.18055e-015 4.1246 0.487 4.1451 7.95139e-016 -3.18055e-015 6.36111e-015 3.40521 -1.45401 2.7682 -2.38542e-015 -3.18055e-015 3.18055e-015 5.6954 0.209991 2.1184 7.95139e-016 -3.18055e-015 6.36111e-015 3.9766 -1.53999 2.3863 -2.38542e-015 -3.18055e-015 3.18055e-015 2.09559 0.65999 -0.38939 -1.76556e-031 3.18055e-015 3.18055e-015 5.0395 -0.089997 2.49707 7.95139e-016 -3.18055e-015 6.36111e-015 3.7921 -1.552 1.4806 -2.38542e-015 -3.18055e-015 3.18055e-015 4.9141 -1.269 0.35915 7.95139e-016 -3.18055e-015 6.36111e-015 3.1477 -1.685 0.84623 -2.38542e-015 -3.18055e-015 3.18055e-015 -1.70688 20.075 5.0056 4.24441 1.03786 13.1161 -13.6458 -0.047012 -4.84902 69.682 -3.08927 -1.69771 -28.3255 -0.975903 2.28883 1.91442 -8.98666 11.4717 -22.1583 -0.530036 10.8316 8.00032 -1.62069 4.41805 -0.785995 0.111999 2.58168 2.08724e-015 7.95139e-016 -1.59028e-015 -0.3601 -0.878005 4.2331 1.2921e-015 0 -1.59028e-015 -0.9571 1.114 1.76948 2.08724e-015 7.95139e-016 -1.59028e-015 -4.1246 0.487 4.1451 1.2921e-015 0 -1.59028e-015 -3.40521 -1.45401 2.7682 -9.93923e-017 7.95139e-016 -0 -5.6954 0.209991 2.1184 1.2921e-015 0 -1.59028e-015 -3.9766 -1.53999 2.3863 -9.93923e-017 7.95139e-016 -0 -2.09559 0.65999 -0.38939 2.08724e-015 7.95139e-016 -1.59028e-015 -5.0395 -0.089997 2.49707 1.2921e-015 0 -1.59028e-015 -3.7921 -1.552 1.4806 -9.93923e-017 7.95139e-016 -0 -4.9141 -1.269 0.35915 1.2921e-015 0 -1.59028e-015 -3.1477 -1.685 0.84623 -9.93923e-017 7.95139e-016 -0 8.367 -8.2066 0.59823 -1.34416 -24.7055 -5.29682 2.19232 -43.463 -0.493181 -0.344863 19.0168 1.45832 0.733257 -45.8593 -2.64513 -0.89949 3.52396 3.36033 -8.367 -8.2066 0.59823 1.61034 7.60918 3.97022 -2.19233 -43.463 -0.493108 12.5744 44.9948 -7.1754 -0.733256 -45.8593 -2.64514 10.1839 15.3885 5.82261 
-0.0200022 105.004 -208.527 -4.68479 -0.73112 -0.925604 3.55271e-015 -1.186 -1.50178 0.829845 1.53771 0.550945 1.77636e-015 9.964 0.21338 1.64575 3.08318 1.08013 -8.88179e-016 13.134 -3.25729 1.64575 3.08318 1.08013 0 21.686 -1.69049 -4.87458 -4.59467 -0.705437 -1.77636e-015 11.838 -0.12368 0.0840258 -7.78913 -1.93097 1.70688 20.075 5.0056 -3.97713 0.699911 -8.01492 13.6458 -0.047012 -4.84902 -60.0128 -7.9137 13.822 28.3255 -0.975903 2.28883 -9.43587 5.18197 2.29789 22.1583 -0.530035 10.8316 0.546344 17.0945 -5.38404 0.785995 0.111999 2.58168 7.95139e-016 0 1.59028e-015 0.3601 -0.878005 4.2331 -0 0 1.59028e-015 0.9571 1.114 1.76948 7.95139e-016 0 1.59028e-015 4.1246 0.487 4.1451 -0 0 1.59028e-015 3.40521 -1.45401 2.7682 7.95139e-016 -3.18055e-015 1.59028e-015 5.6954 0.209991 2.1184 -0 0 1.59028e-015 3.9766 -1.53999 2.3863 7.95139e-016 -3.18055e-015 1.59028e-015 2.09559 0.65999 -0.38939 7.95139e-016 0 1.59028e-015 5.0395 -0.089997 2.49707 -0 0 1.59028e-015 3.7921 -1.552 1.4806 7.95139e-016 -3.18055e-015 1.59028e-015 4.9141 -1.269 0.35915 -0 0 1.59028e-015 3.1477 -1.685 0.84623 7.95139e-016 -3.18055e-015 1.59028e-015 -1.70688 20.075 5.0056 4.79905 1.12955 12.61 -13.6458 -0.047012 -4.84902 69.4702 -4.28752 -2.39287 -28.3255 -0.975903 2.28883 1.57358 -7.91675 9.92151 -22.1583 -0.530036 10.8316 7.82927 -0.988231 3.72232 -0.785995 0.111999 2.58168 6.95746e-016 -1.19271e-015 1.59028e-015 -0.3601 -0.878005 4.2331 -4.96962e-017 -1.19271e-015 -0 -0.9571 1.114 1.76948 6.95746e-016 -1.19271e-015 1.59028e-015 -4.1246 0.487 4.1451 -4.96962e-017 -1.19271e-015 -0 -3.40521 -1.45401 2.7682 1.59028e-015 7.95139e-016 1.59028e-015 -5.6954 0.209991 2.1184 -4.96962e-017 -1.19271e-015 -0 -3.9766 -1.53999 2.3863 1.59028e-015 7.95139e-016 1.59028e-015 -2.09559 0.65999 -0.38939 6.95746e-016 -1.19271e-015 1.59028e-015 -5.0395 -0.089997 2.49707 -4.96962e-017 -1.19271e-015 -0 -3.7921 -1.552 1.4806 1.59028e-015 7.95139e-016 1.59028e-015 -4.9141 -1.269 0.35915 -4.96962e-017 -1.19271e-015 -0 -3.1477 -1.685 0.84623 1.59028e-015 7.95139e-016 1.59028e-015 8.367 -8.2066 0.59823 -0.466698 -21.1236 -4.17559 2.19232 -43.463 -0.493181 -0.130519 19.5036 1.56476 0.733257 -45.8593 -2.64513 0.175783 0.452913 2.81616 -8.367 -8.2066 0.59823 1.85744 1.1282 4.08822 -2.19233 -43.463 -0.493108 16.4774 53.7308 -10.7637 -0.733256 -45.8593 -2.64514 9.57651 15.7413 6.22484 
